%TF.GenerationSoftware,KiCad,Pcbnew,(5.1.6)-1*%
%TF.CreationDate,2021-12-11T15:19:36-08:00*%
%TF.ProjectId,PCB,5043422e-6b69-4636-9164-5f7063625858,rev?*%
%TF.SameCoordinates,Original*%
%TF.FileFunction,Legend,Top*%
%TF.FilePolarity,Positive*%
%FSLAX46Y46*%
G04 Gerber Fmt 4.6, Leading zero omitted, Abs format (unit mm)*
G04 Created by KiCad (PCBNEW (5.1.6)-1) date 2021-12-11 15:19:36*
%MOMM*%
%LPD*%
G01*
G04 APERTURE LIST*
%ADD10C,0.120000*%
%ADD11C,0.150000*%
G04 APERTURE END LIST*
D10*
%TO.C,JP1*%
X90170000Y-77000000D02*
X90170000Y-75890000D01*
X90170000Y-75890000D02*
X91500000Y-75890000D01*
X90170000Y-87090000D02*
X95370000Y-87090000D01*
X95370000Y-87090000D02*
X95370000Y-78460000D01*
X90170000Y-78460000D02*
X95370000Y-78460000D01*
X90170000Y-87090000D02*
X90170000Y-78460000D01*
X92770000Y-87090000D02*
X92770000Y-78460000D01*
X94400000Y-78460000D02*
X94400000Y-78050000D01*
X93680000Y-78460000D02*
X93680000Y-78050000D01*
X91860000Y-78460000D02*
X91860000Y-78110000D01*
X91140000Y-78460000D02*
X91140000Y-78110000D01*
X92651900Y-87090000D02*
X92651900Y-78460000D01*
X92533805Y-87090000D02*
X92533805Y-78460000D01*
X92415710Y-87090000D02*
X92415710Y-78460000D01*
X92297615Y-87090000D02*
X92297615Y-78460000D01*
X92179520Y-87090000D02*
X92179520Y-78460000D01*
X92061425Y-87090000D02*
X92061425Y-78460000D01*
X91943330Y-87090000D02*
X91943330Y-78460000D01*
X91825235Y-87090000D02*
X91825235Y-78460000D01*
X91707140Y-87090000D02*
X91707140Y-78460000D01*
X91589045Y-87090000D02*
X91589045Y-78460000D01*
X91470950Y-87090000D02*
X91470950Y-78460000D01*
X91352855Y-87090000D02*
X91352855Y-78460000D01*
X91234760Y-87090000D02*
X91234760Y-78460000D01*
X91116665Y-87090000D02*
X91116665Y-78460000D01*
X90998570Y-87090000D02*
X90998570Y-78460000D01*
X90880475Y-87090000D02*
X90880475Y-78460000D01*
X90762380Y-87090000D02*
X90762380Y-78460000D01*
X90644285Y-87090000D02*
X90644285Y-78460000D01*
X90526190Y-87090000D02*
X90526190Y-78460000D01*
X90408095Y-87090000D02*
X90408095Y-78460000D01*
X90290000Y-87090000D02*
X90290000Y-78460000D01*
%TO.C,SW1*%
X86365000Y-80603333D02*
X87635000Y-80603333D01*
X87565000Y-81810000D02*
X87565000Y-80603333D01*
X87445000Y-81810000D02*
X87445000Y-80603333D01*
X87325000Y-81810000D02*
X87325000Y-80603333D01*
X87205000Y-81810000D02*
X87205000Y-80603333D01*
X87085000Y-81810000D02*
X87085000Y-80603333D01*
X86965000Y-81810000D02*
X86965000Y-80603333D01*
X86845000Y-81810000D02*
X86845000Y-80603333D01*
X86725000Y-81810000D02*
X86725000Y-80603333D01*
X86605000Y-81810000D02*
X86605000Y-80603333D01*
X86485000Y-81810000D02*
X86485000Y-80603333D01*
X86365000Y-78190000D02*
X86365000Y-81810000D01*
X87635000Y-78190000D02*
X86365000Y-78190000D01*
X87635000Y-81810000D02*
X87635000Y-78190000D01*
X86365000Y-81810000D02*
X87635000Y-81810000D01*
X84650000Y-83650000D02*
X86033000Y-83650000D01*
X84650000Y-83650000D02*
X84650000Y-82267000D01*
X87800000Y-76590000D02*
X89110000Y-76590000D01*
X84890000Y-76590000D02*
X86200000Y-76590000D01*
X87800000Y-83410000D02*
X89110000Y-83410000D01*
X84890000Y-83410000D02*
X86200000Y-83410000D01*
X89110000Y-83410000D02*
X89110000Y-76590000D01*
X84890000Y-83410000D02*
X84890000Y-76590000D01*
%TO.C,R1*%
X98510000Y-77162779D02*
X98510000Y-76837221D01*
X97490000Y-77162779D02*
X97490000Y-76837221D01*
%TO.C, *%
D11*
%TO.C,JP1*%
X88182380Y-82213333D02*
X88896666Y-82213333D01*
X89039523Y-82260952D01*
X89134761Y-82356190D01*
X89182380Y-82499047D01*
X89182380Y-82594285D01*
X89182380Y-81737142D02*
X88182380Y-81737142D01*
X88182380Y-81356190D01*
X88230000Y-81260952D01*
X88277619Y-81213333D01*
X88372857Y-81165714D01*
X88515714Y-81165714D01*
X88610952Y-81213333D01*
X88658571Y-81260952D01*
X88706190Y-81356190D01*
X88706190Y-81737142D01*
X89182380Y-80213333D02*
X89182380Y-80784761D01*
X89182380Y-80499047D02*
X88182380Y-80499047D01*
X88325238Y-80594285D01*
X88420476Y-80689523D01*
X88468095Y-80784761D01*
%TO.C,R1*%
X98452380Y-80166666D02*
X97976190Y-80500000D01*
X98452380Y-80738095D02*
X97452380Y-80738095D01*
X97452380Y-80357142D01*
X97500000Y-80261904D01*
X97547619Y-80214285D01*
X97642857Y-80166666D01*
X97785714Y-80166666D01*
X97880952Y-80214285D01*
X97928571Y-80261904D01*
X97976190Y-80357142D01*
X97976190Y-80738095D01*
X98452380Y-79214285D02*
X98452380Y-79785714D01*
X98452380Y-79500000D02*
X97452380Y-79500000D01*
X97595238Y-79595238D01*
X97690476Y-79690476D01*
X97738095Y-79785714D01*
%TD*%
M02*
