%TF.GenerationSoftware,KiCad,Pcbnew,(5.1.6)-1*%
%TF.CreationDate,2021-12-11T15:19:36-08:00*%
%TF.ProjectId,PCB,5043422e-6b69-4636-9164-5f7063625858,rev?*%
%TF.SameCoordinates,Original*%
%TF.FileFunction,Legend,Bot*%
%TF.FilePolarity,Positive*%
%FSLAX46Y46*%
G04 Gerber Fmt 4.6, Leading zero omitted, Abs format (unit mm)*
G04 Created by KiCad (PCBNEW (5.1.6)-1) date 2021-12-11 15:19:36*
%MOMM*%
%LPD*%
G01*
G04 APERTURE LIST*
%ADD10C,0.120000*%
%ADD11C,0.150000*%
G04 APERTURE END LIST*
D10*
%TO.C,J1*%
X84560000Y-67655001D02*
X165900000Y-67655000D01*
X165900000Y-67655000D02*
X165900000Y-74464999D01*
X165900000Y-74464999D02*
X84560000Y-74465000D01*
X84560000Y-74465000D02*
X84560000Y-72195000D01*
X84560000Y-72195000D02*
X84920000Y-72195000D01*
X84920000Y-72195000D02*
X84920000Y-69925001D01*
X84920000Y-69925001D02*
X84560000Y-69925001D01*
X84560000Y-69925001D02*
X84560000Y-67655001D01*
X87130000Y-69790000D02*
X87130000Y-72330000D01*
X163330000Y-72330000D02*
X163330000Y-69790000D01*
X163330000Y-69790000D02*
X163330000Y-72330000D01*
X163330000Y-69790000D02*
X162060000Y-71060000D01*
X162060000Y-71060000D02*
X163330000Y-69790000D01*
X163330000Y-69790000D02*
X164600000Y-71060000D01*
X164600000Y-71060000D02*
X162060000Y-71060000D01*
X88400000Y-71060000D02*
X87130000Y-69790000D01*
X87130000Y-69790000D02*
X85860000Y-71060000D01*
X85860000Y-71060000D02*
X88400000Y-71060000D01*
D11*
X84107619Y-71393333D02*
X83393333Y-71393333D01*
X83250476Y-71440952D01*
X83155238Y-71536190D01*
X83107619Y-71679047D01*
X83107619Y-71774285D01*
X83107619Y-70393333D02*
X83107619Y-70964761D01*
X83107619Y-70679047D02*
X84107619Y-70679047D01*
X83964761Y-70774285D01*
X83869523Y-70869523D01*
X83821904Y-70964761D01*
%TD*%
M02*
