%TF.GenerationSoftware,KiCad,Pcbnew,(5.1.6)-1*%
%TF.CreationDate,2021-12-11T15:19:36-08:00*%
%TF.ProjectId,PCB,5043422e-6b69-4636-9164-5f7063625858,rev?*%
%TF.SameCoordinates,Original*%
%TF.FileFunction,Soldermask,Top*%
%TF.FilePolarity,Negative*%
%FSLAX46Y46*%
G04 Gerber Fmt 4.6, Leading zero omitted, Abs format (unit mm)*
G04 Created by KiCad (PCBNEW (5.1.6)-1) date 2021-12-11 15:19:36*
%MOMM*%
%LPD*%
G01*
G04 APERTURE LIST*
%ADD10C,13.100000*%
%ADD11O,1.800000X1.800000*%
%ADD12R,1.800000X1.800000*%
%ADD13O,1.700000X2.100000*%
%ADD14R,1.220000X2.260000*%
G04 APERTURE END LIST*
D10*
%TO.C, *%
X116500000Y-81000000D03*
%TD*%
%TO.C, *%
X149500000Y-81000000D03*
%TD*%
D11*
%TO.C,JP1*%
X94040000Y-77000000D03*
D12*
X91500000Y-77000000D03*
%TD*%
D13*
%TO.C,J1*%
X164600000Y-69155000D03*
X164600000Y-72965000D03*
X162060000Y-69155000D03*
X162060000Y-72965000D03*
X159520000Y-69155000D03*
X159520000Y-72965000D03*
X156980000Y-69155000D03*
X156980000Y-72965000D03*
X154440000Y-69155000D03*
X154440000Y-72965000D03*
X151900000Y-69155000D03*
X151900000Y-72965000D03*
X149360000Y-69155000D03*
X149360000Y-72965000D03*
X146820000Y-69155000D03*
X146820000Y-72965000D03*
X144280000Y-69155000D03*
X144280000Y-72965000D03*
X141740000Y-69155000D03*
X141740000Y-72965000D03*
X139200000Y-69155000D03*
X139200000Y-72965000D03*
X136660000Y-69155000D03*
X136660000Y-72965000D03*
X134120000Y-69155000D03*
X134120000Y-72965000D03*
X131580000Y-69155000D03*
X131580000Y-72965000D03*
X129040000Y-69155000D03*
X129040000Y-72965000D03*
X126500000Y-69155000D03*
X126500000Y-72965000D03*
X123960000Y-69155000D03*
X123960000Y-72965000D03*
X121420000Y-69155000D03*
X121420000Y-72965000D03*
X118880000Y-69155000D03*
X118880000Y-72965000D03*
X116340000Y-69155000D03*
X116340000Y-72965000D03*
X113800000Y-69155000D03*
X113800000Y-72965000D03*
X111260000Y-69155000D03*
X111260000Y-72965000D03*
X108720000Y-69155000D03*
X108720000Y-72965000D03*
X106180000Y-69155000D03*
X106180000Y-72965000D03*
X103640000Y-69155000D03*
X103640000Y-72965000D03*
X101100000Y-69155000D03*
X101100000Y-72965000D03*
X98560000Y-69155000D03*
X98560000Y-72965000D03*
X96020000Y-69155000D03*
X96020000Y-72965000D03*
X93480000Y-69155000D03*
X93480000Y-72965000D03*
X90940000Y-69155000D03*
X90940000Y-72965000D03*
X88400000Y-69155000D03*
X88400000Y-72965000D03*
X85860000Y-69155000D03*
X85860000Y-72965000D03*
%TD*%
D14*
%TO.C,SW1*%
X87000000Y-76635000D03*
X87000000Y-83365000D03*
%TD*%
%TO.C,R1*%
G36*
G01*
X98281250Y-76700000D02*
X97718750Y-76700000D01*
G75*
G02*
X97475000Y-76456250I0J243750D01*
G01*
X97475000Y-75968750D01*
G75*
G02*
X97718750Y-75725000I243750J0D01*
G01*
X98281250Y-75725000D01*
G75*
G02*
X98525000Y-75968750I0J-243750D01*
G01*
X98525000Y-76456250D01*
G75*
G02*
X98281250Y-76700000I-243750J0D01*
G01*
G37*
G36*
G01*
X98281250Y-78275000D02*
X97718750Y-78275000D01*
G75*
G02*
X97475000Y-78031250I0J243750D01*
G01*
X97475000Y-77543750D01*
G75*
G02*
X97718750Y-77300000I243750J0D01*
G01*
X98281250Y-77300000D01*
G75*
G02*
X98525000Y-77543750I0J-243750D01*
G01*
X98525000Y-78031250D01*
G75*
G02*
X98281250Y-78275000I-243750J0D01*
G01*
G37*
%TD*%
M02*
