%TF.GenerationSoftware,KiCad,Pcbnew,(5.1.6)-1*%
%TF.CreationDate,2021-12-11T15:19:36-08:00*%
%TF.ProjectId,PCB,5043422e-6b69-4636-9164-5f7063625858,rev?*%
%TF.SameCoordinates,Original*%
%TF.FileFunction,Soldermask,Bot*%
%TF.FilePolarity,Negative*%
%FSLAX46Y46*%
G04 Gerber Fmt 4.6, Leading zero omitted, Abs format (unit mm)*
G04 Created by KiCad (PCBNEW (5.1.6)-1) date 2021-12-11 15:19:36*
%MOMM*%
%LPD*%
G01*
G04 APERTURE LIST*
%ADD10C,0.300000*%
%ADD11C,13.100000*%
%ADD12O,1.800000X1.800000*%
%ADD13R,1.800000X1.800000*%
%ADD14O,1.700000X2.100000*%
G04 APERTURE END LIST*
D10*
X97428571Y-81388571D02*
X97428571Y-79888571D01*
X97071428Y-79888571D01*
X96857142Y-79960000D01*
X96714285Y-80102857D01*
X96642857Y-80245714D01*
X96571428Y-80531428D01*
X96571428Y-80745714D01*
X96642857Y-81031428D01*
X96714285Y-81174285D01*
X96857142Y-81317142D01*
X97071428Y-81388571D01*
X97428571Y-81388571D01*
X95928571Y-81388571D02*
X95928571Y-79888571D01*
X95357142Y-79888571D01*
X95214285Y-79960000D01*
X95142857Y-80031428D01*
X95071428Y-80174285D01*
X95071428Y-80388571D01*
X95142857Y-80531428D01*
X95214285Y-80602857D01*
X95357142Y-80674285D01*
X95928571Y-80674285D01*
X94500000Y-81317142D02*
X94285714Y-81388571D01*
X93928571Y-81388571D01*
X93785714Y-81317142D01*
X93714285Y-81245714D01*
X93642857Y-81102857D01*
X93642857Y-80960000D01*
X93714285Y-80817142D01*
X93785714Y-80745714D01*
X93928571Y-80674285D01*
X94214285Y-80602857D01*
X94357142Y-80531428D01*
X94428571Y-80460000D01*
X94500000Y-80317142D01*
X94500000Y-80174285D01*
X94428571Y-80031428D01*
X94357142Y-79960000D01*
X94214285Y-79888571D01*
X93857142Y-79888571D01*
X93642857Y-79960000D01*
X91357142Y-80602857D02*
X91142857Y-80674285D01*
X91071428Y-80745714D01*
X91000000Y-80888571D01*
X91000000Y-81102857D01*
X91071428Y-81245714D01*
X91142857Y-81317142D01*
X91285714Y-81388571D01*
X91857142Y-81388571D01*
X91857142Y-79888571D01*
X91357142Y-79888571D01*
X91214285Y-79960000D01*
X91142857Y-80031428D01*
X91071428Y-80174285D01*
X91071428Y-80317142D01*
X91142857Y-80460000D01*
X91214285Y-80531428D01*
X91357142Y-80602857D01*
X91857142Y-80602857D01*
X90142857Y-81388571D02*
X90285714Y-81317142D01*
X90357142Y-81245714D01*
X90428571Y-81102857D01*
X90428571Y-80674285D01*
X90357142Y-80531428D01*
X90285714Y-80460000D01*
X90142857Y-80388571D01*
X89928571Y-80388571D01*
X89785714Y-80460000D01*
X89714285Y-80531428D01*
X89642857Y-80674285D01*
X89642857Y-81102857D01*
X89714285Y-81245714D01*
X89785714Y-81317142D01*
X89928571Y-81388571D01*
X90142857Y-81388571D01*
X88357142Y-81388571D02*
X88357142Y-80602857D01*
X88428571Y-80460000D01*
X88571428Y-80388571D01*
X88857142Y-80388571D01*
X89000000Y-80460000D01*
X88357142Y-81317142D02*
X88500000Y-81388571D01*
X88857142Y-81388571D01*
X89000000Y-81317142D01*
X89071428Y-81174285D01*
X89071428Y-81031428D01*
X89000000Y-80888571D01*
X88857142Y-80817142D01*
X88500000Y-80817142D01*
X88357142Y-80745714D01*
X87642857Y-81388571D02*
X87642857Y-80388571D01*
X87642857Y-80674285D02*
X87571428Y-80531428D01*
X87500000Y-80460000D01*
X87357142Y-80388571D01*
X87214285Y-80388571D01*
X86071428Y-81388571D02*
X86071428Y-79888571D01*
X86071428Y-81317142D02*
X86214285Y-81388571D01*
X86500000Y-81388571D01*
X86642857Y-81317142D01*
X86714285Y-81245714D01*
X86785714Y-81102857D01*
X86785714Y-80674285D01*
X86714285Y-80531428D01*
X86642857Y-80460000D01*
X86500000Y-80388571D01*
X86214285Y-80388571D01*
X86071428Y-80460000D01*
X97214285Y-83152857D02*
X96714285Y-83152857D01*
X96500000Y-83938571D02*
X97214285Y-83938571D01*
X97214285Y-82438571D01*
X96500000Y-82438571D01*
X96071428Y-82938571D02*
X95500000Y-82938571D01*
X95857142Y-82438571D02*
X95857142Y-83724285D01*
X95785714Y-83867142D01*
X95642857Y-83938571D01*
X95500000Y-83938571D01*
X95000000Y-83938571D02*
X95000000Y-82438571D01*
X94357142Y-83938571D02*
X94357142Y-83152857D01*
X94428571Y-83010000D01*
X94571428Y-82938571D01*
X94785714Y-82938571D01*
X94928571Y-83010000D01*
X95000000Y-83081428D01*
X93000000Y-83938571D02*
X93000000Y-83152857D01*
X93071428Y-83010000D01*
X93214285Y-82938571D01*
X93500000Y-82938571D01*
X93642857Y-83010000D01*
X93000000Y-83867142D02*
X93142857Y-83938571D01*
X93500000Y-83938571D01*
X93642857Y-83867142D01*
X93714285Y-83724285D01*
X93714285Y-83581428D01*
X93642857Y-83438571D01*
X93500000Y-83367142D01*
X93142857Y-83367142D01*
X93000000Y-83295714D01*
X92285714Y-82938571D02*
X92285714Y-83938571D01*
X92285714Y-83081428D02*
X92214285Y-83010000D01*
X92071428Y-82938571D01*
X91857142Y-82938571D01*
X91714285Y-83010000D01*
X91642857Y-83152857D01*
X91642857Y-83938571D01*
X88928571Y-83795714D02*
X89000000Y-83867142D01*
X89214285Y-83938571D01*
X89357142Y-83938571D01*
X89571428Y-83867142D01*
X89714285Y-83724285D01*
X89785714Y-83581428D01*
X89857142Y-83295714D01*
X89857142Y-83081428D01*
X89785714Y-82795714D01*
X89714285Y-82652857D01*
X89571428Y-82510000D01*
X89357142Y-82438571D01*
X89214285Y-82438571D01*
X89000000Y-82510000D01*
X88928571Y-82581428D01*
X87642857Y-83938571D02*
X87642857Y-83152857D01*
X87714285Y-83010000D01*
X87857142Y-82938571D01*
X88142857Y-82938571D01*
X88285714Y-83010000D01*
X87642857Y-83867142D02*
X87785714Y-83938571D01*
X88142857Y-83938571D01*
X88285714Y-83867142D01*
X88357142Y-83724285D01*
X88357142Y-83581428D01*
X88285714Y-83438571D01*
X88142857Y-83367142D01*
X87785714Y-83367142D01*
X87642857Y-83295714D01*
X86714285Y-83938571D02*
X86857142Y-83867142D01*
X86928571Y-83795714D01*
X87000000Y-83652857D01*
X87000000Y-83224285D01*
X86928571Y-83081428D01*
X86857142Y-83010000D01*
X86714285Y-82938571D01*
X86500000Y-82938571D01*
X86357142Y-83010000D01*
X86285714Y-83081428D01*
X86214285Y-83224285D01*
X86214285Y-83652857D01*
X86285714Y-83795714D01*
X86357142Y-83867142D01*
X86500000Y-83938571D01*
X86714285Y-83938571D01*
X94142857Y-86488571D02*
X94642857Y-85774285D01*
X95000000Y-86488571D02*
X95000000Y-84988571D01*
X94428571Y-84988571D01*
X94285714Y-85060000D01*
X94214285Y-85131428D01*
X94142857Y-85274285D01*
X94142857Y-85488571D01*
X94214285Y-85631428D01*
X94285714Y-85702857D01*
X94428571Y-85774285D01*
X95000000Y-85774285D01*
X92928571Y-86417142D02*
X93071428Y-86488571D01*
X93357142Y-86488571D01*
X93500000Y-86417142D01*
X93571428Y-86274285D01*
X93571428Y-85702857D01*
X93500000Y-85560000D01*
X93357142Y-85488571D01*
X93071428Y-85488571D01*
X92928571Y-85560000D01*
X92857142Y-85702857D01*
X92857142Y-85845714D01*
X93571428Y-85988571D01*
X92357142Y-85488571D02*
X92000000Y-86488571D01*
X91642857Y-85488571D01*
X91071428Y-86345714D02*
X91000000Y-86417142D01*
X91071428Y-86488571D01*
X91142857Y-86417142D01*
X91071428Y-86345714D01*
X91071428Y-86488571D01*
X88428571Y-86488571D02*
X89285714Y-86488571D01*
X88857142Y-86488571D02*
X88857142Y-84988571D01*
X89000000Y-85202857D01*
X89142857Y-85345714D01*
X89285714Y-85417142D01*
D11*
%TO.C, *%
X116500000Y-81000000D03*
%TD*%
%TO.C, *%
X149500000Y-81000000D03*
%TD*%
D12*
%TO.C,JP1*%
X94040000Y-77000000D03*
D13*
X91500000Y-77000000D03*
%TD*%
D14*
%TO.C,J1*%
X164600000Y-69155000D03*
X164600000Y-72965000D03*
X162060000Y-69155000D03*
X162060000Y-72965000D03*
X159520000Y-69155000D03*
X159520000Y-72965000D03*
X156980000Y-69155000D03*
X156980000Y-72965000D03*
X154440000Y-69155000D03*
X154440000Y-72965000D03*
X151900000Y-69155000D03*
X151900000Y-72965000D03*
X149360000Y-69155000D03*
X149360000Y-72965000D03*
X146820000Y-69155000D03*
X146820000Y-72965000D03*
X144280000Y-69155000D03*
X144280000Y-72965000D03*
X141740000Y-69155000D03*
X141740000Y-72965000D03*
X139200000Y-69155000D03*
X139200000Y-72965000D03*
X136660000Y-69155000D03*
X136660000Y-72965000D03*
X134120000Y-69155000D03*
X134120000Y-72965000D03*
X131580000Y-69155000D03*
X131580000Y-72965000D03*
X129040000Y-69155000D03*
X129040000Y-72965000D03*
X126500000Y-69155000D03*
X126500000Y-72965000D03*
X123960000Y-69155000D03*
X123960000Y-72965000D03*
X121420000Y-69155000D03*
X121420000Y-72965000D03*
X118880000Y-69155000D03*
X118880000Y-72965000D03*
X116340000Y-69155000D03*
X116340000Y-72965000D03*
X113800000Y-69155000D03*
X113800000Y-72965000D03*
X111260000Y-69155000D03*
X111260000Y-72965000D03*
X108720000Y-69155000D03*
X108720000Y-72965000D03*
X106180000Y-69155000D03*
X106180000Y-72965000D03*
X103640000Y-69155000D03*
X103640000Y-72965000D03*
X101100000Y-69155000D03*
X101100000Y-72965000D03*
X98560000Y-69155000D03*
X98560000Y-72965000D03*
X96020000Y-69155000D03*
X96020000Y-72965000D03*
X93480000Y-69155000D03*
X93480000Y-72965000D03*
X90940000Y-69155000D03*
X90940000Y-72965000D03*
X88400000Y-69155000D03*
X88400000Y-72965000D03*
X85860000Y-69155000D03*
X85860000Y-72965000D03*
%TD*%
M02*
