%TF.GenerationSoftware,KiCad,Pcbnew,(5.1.6)-1*%
%TF.CreationDate,2021-12-11T15:19:36-08:00*%
%TF.ProjectId,PCB,5043422e-6b69-4636-9164-5f7063625858,rev?*%
%TF.SameCoordinates,Original*%
%TF.FileFunction,Copper,L2,Bot*%
%TF.FilePolarity,Positive*%
%FSLAX46Y46*%
G04 Gerber Fmt 4.6, Leading zero omitted, Abs format (unit mm)*
G04 Created by KiCad (PCBNEW (5.1.6)-1) date 2021-12-11 15:19:36*
%MOMM*%
%LPD*%
G01*
G04 APERTURE LIST*
%TA.AperFunction,NonConductor*%
%ADD10C,0.300000*%
%TD*%
%TA.AperFunction,ComponentPad*%
%ADD11C,13.000000*%
%TD*%
%TA.AperFunction,ComponentPad*%
%ADD12O,1.700000X1.700000*%
%TD*%
%TA.AperFunction,ComponentPad*%
%ADD13R,1.700000X1.700000*%
%TD*%
%TA.AperFunction,ComponentPad*%
%ADD14O,1.600000X2.000000*%
%TD*%
%TA.AperFunction,ViaPad*%
%ADD15C,0.800000*%
%TD*%
%TA.AperFunction,Conductor*%
%ADD16C,0.254000*%
%TD*%
G04 APERTURE END LIST*
D10*
X97428571Y-81388571D02*
X97428571Y-79888571D01*
X97071428Y-79888571D01*
X96857142Y-79960000D01*
X96714285Y-80102857D01*
X96642857Y-80245714D01*
X96571428Y-80531428D01*
X96571428Y-80745714D01*
X96642857Y-81031428D01*
X96714285Y-81174285D01*
X96857142Y-81317142D01*
X97071428Y-81388571D01*
X97428571Y-81388571D01*
X95928571Y-81388571D02*
X95928571Y-79888571D01*
X95357142Y-79888571D01*
X95214285Y-79960000D01*
X95142857Y-80031428D01*
X95071428Y-80174285D01*
X95071428Y-80388571D01*
X95142857Y-80531428D01*
X95214285Y-80602857D01*
X95357142Y-80674285D01*
X95928571Y-80674285D01*
X94500000Y-81317142D02*
X94285714Y-81388571D01*
X93928571Y-81388571D01*
X93785714Y-81317142D01*
X93714285Y-81245714D01*
X93642857Y-81102857D01*
X93642857Y-80960000D01*
X93714285Y-80817142D01*
X93785714Y-80745714D01*
X93928571Y-80674285D01*
X94214285Y-80602857D01*
X94357142Y-80531428D01*
X94428571Y-80460000D01*
X94500000Y-80317142D01*
X94500000Y-80174285D01*
X94428571Y-80031428D01*
X94357142Y-79960000D01*
X94214285Y-79888571D01*
X93857142Y-79888571D01*
X93642857Y-79960000D01*
X91357142Y-80602857D02*
X91142857Y-80674285D01*
X91071428Y-80745714D01*
X91000000Y-80888571D01*
X91000000Y-81102857D01*
X91071428Y-81245714D01*
X91142857Y-81317142D01*
X91285714Y-81388571D01*
X91857142Y-81388571D01*
X91857142Y-79888571D01*
X91357142Y-79888571D01*
X91214285Y-79960000D01*
X91142857Y-80031428D01*
X91071428Y-80174285D01*
X91071428Y-80317142D01*
X91142857Y-80460000D01*
X91214285Y-80531428D01*
X91357142Y-80602857D01*
X91857142Y-80602857D01*
X90142857Y-81388571D02*
X90285714Y-81317142D01*
X90357142Y-81245714D01*
X90428571Y-81102857D01*
X90428571Y-80674285D01*
X90357142Y-80531428D01*
X90285714Y-80460000D01*
X90142857Y-80388571D01*
X89928571Y-80388571D01*
X89785714Y-80460000D01*
X89714285Y-80531428D01*
X89642857Y-80674285D01*
X89642857Y-81102857D01*
X89714285Y-81245714D01*
X89785714Y-81317142D01*
X89928571Y-81388571D01*
X90142857Y-81388571D01*
X88357142Y-81388571D02*
X88357142Y-80602857D01*
X88428571Y-80460000D01*
X88571428Y-80388571D01*
X88857142Y-80388571D01*
X89000000Y-80460000D01*
X88357142Y-81317142D02*
X88500000Y-81388571D01*
X88857142Y-81388571D01*
X89000000Y-81317142D01*
X89071428Y-81174285D01*
X89071428Y-81031428D01*
X89000000Y-80888571D01*
X88857142Y-80817142D01*
X88500000Y-80817142D01*
X88357142Y-80745714D01*
X87642857Y-81388571D02*
X87642857Y-80388571D01*
X87642857Y-80674285D02*
X87571428Y-80531428D01*
X87500000Y-80460000D01*
X87357142Y-80388571D01*
X87214285Y-80388571D01*
X86071428Y-81388571D02*
X86071428Y-79888571D01*
X86071428Y-81317142D02*
X86214285Y-81388571D01*
X86500000Y-81388571D01*
X86642857Y-81317142D01*
X86714285Y-81245714D01*
X86785714Y-81102857D01*
X86785714Y-80674285D01*
X86714285Y-80531428D01*
X86642857Y-80460000D01*
X86500000Y-80388571D01*
X86214285Y-80388571D01*
X86071428Y-80460000D01*
X97214285Y-83152857D02*
X96714285Y-83152857D01*
X96500000Y-83938571D02*
X97214285Y-83938571D01*
X97214285Y-82438571D01*
X96500000Y-82438571D01*
X96071428Y-82938571D02*
X95500000Y-82938571D01*
X95857142Y-82438571D02*
X95857142Y-83724285D01*
X95785714Y-83867142D01*
X95642857Y-83938571D01*
X95500000Y-83938571D01*
X95000000Y-83938571D02*
X95000000Y-82438571D01*
X94357142Y-83938571D02*
X94357142Y-83152857D01*
X94428571Y-83010000D01*
X94571428Y-82938571D01*
X94785714Y-82938571D01*
X94928571Y-83010000D01*
X95000000Y-83081428D01*
X93000000Y-83938571D02*
X93000000Y-83152857D01*
X93071428Y-83010000D01*
X93214285Y-82938571D01*
X93500000Y-82938571D01*
X93642857Y-83010000D01*
X93000000Y-83867142D02*
X93142857Y-83938571D01*
X93500000Y-83938571D01*
X93642857Y-83867142D01*
X93714285Y-83724285D01*
X93714285Y-83581428D01*
X93642857Y-83438571D01*
X93500000Y-83367142D01*
X93142857Y-83367142D01*
X93000000Y-83295714D01*
X92285714Y-82938571D02*
X92285714Y-83938571D01*
X92285714Y-83081428D02*
X92214285Y-83010000D01*
X92071428Y-82938571D01*
X91857142Y-82938571D01*
X91714285Y-83010000D01*
X91642857Y-83152857D01*
X91642857Y-83938571D01*
X88928571Y-83795714D02*
X89000000Y-83867142D01*
X89214285Y-83938571D01*
X89357142Y-83938571D01*
X89571428Y-83867142D01*
X89714285Y-83724285D01*
X89785714Y-83581428D01*
X89857142Y-83295714D01*
X89857142Y-83081428D01*
X89785714Y-82795714D01*
X89714285Y-82652857D01*
X89571428Y-82510000D01*
X89357142Y-82438571D01*
X89214285Y-82438571D01*
X89000000Y-82510000D01*
X88928571Y-82581428D01*
X87642857Y-83938571D02*
X87642857Y-83152857D01*
X87714285Y-83010000D01*
X87857142Y-82938571D01*
X88142857Y-82938571D01*
X88285714Y-83010000D01*
X87642857Y-83867142D02*
X87785714Y-83938571D01*
X88142857Y-83938571D01*
X88285714Y-83867142D01*
X88357142Y-83724285D01*
X88357142Y-83581428D01*
X88285714Y-83438571D01*
X88142857Y-83367142D01*
X87785714Y-83367142D01*
X87642857Y-83295714D01*
X86714285Y-83938571D02*
X86857142Y-83867142D01*
X86928571Y-83795714D01*
X87000000Y-83652857D01*
X87000000Y-83224285D01*
X86928571Y-83081428D01*
X86857142Y-83010000D01*
X86714285Y-82938571D01*
X86500000Y-82938571D01*
X86357142Y-83010000D01*
X86285714Y-83081428D01*
X86214285Y-83224285D01*
X86214285Y-83652857D01*
X86285714Y-83795714D01*
X86357142Y-83867142D01*
X86500000Y-83938571D01*
X86714285Y-83938571D01*
X94142857Y-86488571D02*
X94642857Y-85774285D01*
X95000000Y-86488571D02*
X95000000Y-84988571D01*
X94428571Y-84988571D01*
X94285714Y-85060000D01*
X94214285Y-85131428D01*
X94142857Y-85274285D01*
X94142857Y-85488571D01*
X94214285Y-85631428D01*
X94285714Y-85702857D01*
X94428571Y-85774285D01*
X95000000Y-85774285D01*
X92928571Y-86417142D02*
X93071428Y-86488571D01*
X93357142Y-86488571D01*
X93500000Y-86417142D01*
X93571428Y-86274285D01*
X93571428Y-85702857D01*
X93500000Y-85560000D01*
X93357142Y-85488571D01*
X93071428Y-85488571D01*
X92928571Y-85560000D01*
X92857142Y-85702857D01*
X92857142Y-85845714D01*
X93571428Y-85988571D01*
X92357142Y-85488571D02*
X92000000Y-86488571D01*
X91642857Y-85488571D01*
X91071428Y-86345714D02*
X91000000Y-86417142D01*
X91071428Y-86488571D01*
X91142857Y-86417142D01*
X91071428Y-86345714D01*
X91071428Y-86488571D01*
X88428571Y-86488571D02*
X89285714Y-86488571D01*
X88857142Y-86488571D02*
X88857142Y-84988571D01*
X89000000Y-85202857D01*
X89142857Y-85345714D01*
X89285714Y-85417142D01*
D11*
%TO.P, ,1*%
%TO.N,GND*%
X116500000Y-81000000D03*
%TD*%
%TO.P, ,1*%
%TO.N,+12V*%
X149500000Y-81000000D03*
%TD*%
D12*
%TO.P,JP1,2*%
%TO.N,Net-(J1-Pad1)*%
X94040000Y-77000000D03*
D13*
%TO.P,JP1,1*%
%TO.N,Net-(JP1-Pad1)*%
X91500000Y-77000000D03*
%TD*%
D14*
%TO.P,J1,32*%
%TO.N,+12V*%
X164600000Y-69155000D03*
%TO.P,J1,33*%
X164600000Y-72965000D03*
%TO.P,J1,31*%
X162060000Y-69155000D03*
%TO.P,J1,34*%
X162060000Y-72965000D03*
%TO.P,J1,30*%
X159520000Y-69155000D03*
%TO.P,J1,35*%
X159520000Y-72965000D03*
%TO.P,J1,29*%
X156980000Y-69155000D03*
%TO.P,J1,36*%
X156980000Y-72965000D03*
%TO.P,J1,28*%
X154440000Y-69155000D03*
%TO.P,J1,37*%
X154440000Y-72965000D03*
%TO.P,J1,27*%
X151900000Y-69155000D03*
%TO.P,J1,38*%
X151900000Y-72965000D03*
%TO.P,J1,26*%
X149360000Y-69155000D03*
%TO.P,J1,39*%
X149360000Y-72965000D03*
%TO.P,J1,25*%
X146820000Y-69155000D03*
%TO.P,J1,40*%
X146820000Y-72965000D03*
%TO.P,J1,24*%
X144280000Y-69155000D03*
%TO.P,J1,41*%
X144280000Y-72965000D03*
%TO.P,J1,23*%
X141740000Y-69155000D03*
%TO.P,J1,42*%
X141740000Y-72965000D03*
%TO.P,J1,22*%
X139200000Y-69155000D03*
%TO.P,J1,43*%
X139200000Y-72965000D03*
%TO.P,J1,21*%
X136660000Y-69155000D03*
%TO.P,J1,44*%
X136660000Y-72965000D03*
%TO.P,J1,20*%
X134120000Y-69155000D03*
%TO.P,J1,45*%
X134120000Y-72965000D03*
%TO.P,J1,19*%
%TO.N,GND*%
X131580000Y-69155000D03*
%TO.P,J1,46*%
X131580000Y-72965000D03*
%TO.P,J1,18*%
X129040000Y-69155000D03*
%TO.P,J1,47*%
X129040000Y-72965000D03*
%TO.P,J1,17*%
X126500000Y-69155000D03*
%TO.P,J1,48*%
X126500000Y-72965000D03*
%TO.P,J1,16*%
X123960000Y-69155000D03*
%TO.P,J1,49*%
X123960000Y-72965000D03*
%TO.P,J1,15*%
X121420000Y-69155000D03*
%TO.P,J1,50*%
X121420000Y-72965000D03*
%TO.P,J1,14*%
X118880000Y-69155000D03*
%TO.P,J1,51*%
X118880000Y-72965000D03*
%TO.P,J1,13*%
X116340000Y-69155000D03*
%TO.P,J1,52*%
X116340000Y-72965000D03*
%TO.P,J1,12*%
X113800000Y-69155000D03*
%TO.P,J1,53*%
X113800000Y-72965000D03*
%TO.P,J1,11*%
X111260000Y-69155000D03*
%TO.P,J1,54*%
X111260000Y-72965000D03*
%TO.P,J1,10*%
X108720000Y-69155000D03*
%TO.P,J1,55*%
X108720000Y-72965000D03*
%TO.P,J1,9*%
X106180000Y-69155000D03*
%TO.P,J1,56*%
X106180000Y-72965000D03*
%TO.P,J1,8*%
X103640000Y-69155000D03*
%TO.P,J1,57*%
X103640000Y-72965000D03*
%TO.P,J1,7*%
X101100000Y-69155000D03*
%TO.P,J1,58*%
X101100000Y-72965000D03*
%TO.P,J1,6*%
%TO.N,N/C*%
X98560000Y-69155000D03*
%TO.P,J1,59*%
X98560000Y-72965000D03*
%TO.P,J1,5*%
X96020000Y-69155000D03*
%TO.P,J1,60*%
X96020000Y-72965000D03*
%TO.P,J1,4*%
%TO.N,Net-(J1-Pad4)*%
X93480000Y-69155000D03*
%TO.P,J1,61*%
%TO.N,N/C*%
X93480000Y-72965000D03*
%TO.P,J1,3*%
X90940000Y-69155000D03*
%TO.P,J1,62*%
X90940000Y-72965000D03*
%TO.P,J1,2*%
X88400000Y-69155000D03*
%TO.P,J1,63*%
X88400000Y-72965000D03*
%TO.P,J1,1*%
%TO.N,Net-(J1-Pad1)*%
X85860000Y-69155000D03*
%TO.P,J1,64*%
%TO.N,N/C*%
X85860000Y-72965000D03*
%TD*%
D15*
%TO.N,+12V*%
X147000000Y-87000000D03*
X149000000Y-87000000D03*
X151000000Y-87000000D03*
X155000000Y-83000000D03*
X153000000Y-83000000D03*
X154000000Y-85000000D03*
X152000000Y-85000000D03*
X150000000Y-85000000D03*
X148000000Y-85000000D03*
X146000000Y-85000000D03*
X145000000Y-83000000D03*
X146000000Y-81000000D03*
X144000000Y-81000000D03*
X156000000Y-81000000D03*
X154000000Y-81000000D03*
X155000000Y-79000000D03*
X153000000Y-79000000D03*
X145000000Y-79000000D03*
X146000000Y-77000000D03*
X148000000Y-77000000D03*
X150000000Y-77000000D03*
X152000000Y-77000000D03*
X154000000Y-77000000D03*
X134000000Y-71000000D03*
X136000000Y-71000000D03*
X138000000Y-71000000D03*
X140000000Y-71000000D03*
X142000000Y-71000000D03*
X144000000Y-71000000D03*
X148000000Y-71000000D03*
X146000000Y-71000000D03*
X150000000Y-71000000D03*
X152000000Y-71000000D03*
X154000000Y-71000000D03*
X156000000Y-71000000D03*
X158000000Y-71000000D03*
X160000000Y-71000000D03*
X162000000Y-71000000D03*
X164000000Y-71000000D03*
X165000000Y-75000000D03*
X163000000Y-75000000D03*
X159000000Y-75000000D03*
X161000000Y-75000000D03*
X157000000Y-75000000D03*
X155000000Y-75000000D03*
X151000000Y-75000000D03*
X149000000Y-75000000D03*
X147000000Y-75000000D03*
X144000000Y-75000000D03*
X138000000Y-75000000D03*
X138000000Y-75000000D03*
X138000000Y-75000000D03*
X136000000Y-75000000D03*
X136000000Y-75000000D03*
X136000000Y-75000000D03*
X136000000Y-75000000D03*
X134000000Y-75000000D03*
X134000000Y-75000000D03*
X153000000Y-75000000D03*
X140000000Y-75000000D03*
X142000000Y-75000000D03*
X144000000Y-77000000D03*
X143000000Y-79000000D03*
X143000000Y-83000000D03*
X144000000Y-85000000D03*
X142000000Y-81000000D03*
X142000000Y-77000000D03*
X141000000Y-79000000D03*
X140000000Y-81000000D03*
X141000000Y-83000000D03*
X142000000Y-85000000D03*
X143000000Y-87000000D03*
X145000000Y-87000000D03*
X153000000Y-87000000D03*
X155000000Y-87000000D03*
X156000000Y-85000000D03*
X157000000Y-83000000D03*
X158000000Y-81000000D03*
X157000000Y-79000000D03*
X156000000Y-77000000D03*
%TO.N,GND*%
X119000000Y-87000000D03*
X117000000Y-87000000D03*
X115000000Y-87000000D03*
X112000000Y-85000000D03*
X114000000Y-85000000D03*
X116000000Y-85000000D03*
X118000000Y-85000000D03*
X120000000Y-85000000D03*
X121000000Y-83000000D03*
X113000000Y-83000000D03*
X111000000Y-83000000D03*
X110000000Y-81000000D03*
X112000000Y-81000000D03*
X120000000Y-81000000D03*
X122000000Y-81000000D03*
X121000000Y-79000000D03*
X111000000Y-79000000D03*
X113000000Y-79000000D03*
X112000000Y-77000000D03*
X120000000Y-77000000D03*
X118000000Y-77000000D03*
X116000000Y-77000000D03*
X114000000Y-77000000D03*
X132000000Y-71000000D03*
X130000000Y-71000000D03*
X128000000Y-71000000D03*
X126000000Y-71000000D03*
X124000000Y-71000000D03*
X122000000Y-71000000D03*
X120000000Y-71000000D03*
X118000000Y-71000000D03*
X116000000Y-71000000D03*
X114000000Y-71000000D03*
X112000000Y-71000000D03*
X110000000Y-71000000D03*
X108000000Y-71000000D03*
X101000000Y-75000000D03*
X103000000Y-75000000D03*
X105000000Y-75000000D03*
X107000000Y-75000000D03*
X109000000Y-75000000D03*
X111000000Y-75000000D03*
X113000000Y-75000000D03*
X115000000Y-75000000D03*
X117000000Y-75000000D03*
X119000000Y-75000000D03*
X122000000Y-75000000D03*
X130000000Y-75000000D03*
X132000000Y-75000000D03*
X124000000Y-75000000D03*
X126000000Y-75000000D03*
X128000000Y-75000000D03*
X106000000Y-71000000D03*
X104000000Y-71000000D03*
X102000000Y-71000000D03*
X122000000Y-77000000D03*
X123000000Y-83000000D03*
X123000000Y-79000000D03*
X122000000Y-85000000D03*
X124000000Y-81000000D03*
X110000000Y-77000000D03*
X109000000Y-79000000D03*
X108000000Y-81000000D03*
X109000000Y-83000000D03*
X110000000Y-85000000D03*
X111000000Y-87000000D03*
X113000000Y-87000000D03*
X121000000Y-87000000D03*
X124000000Y-77000000D03*
X125000000Y-79000000D03*
X126000000Y-81000000D03*
X125000000Y-83000000D03*
X124000000Y-85000000D03*
X123000000Y-87000000D03*
%TD*%
D16*
%TO.N,+12V*%
G36*
X165315001Y-87315000D02*
G01*
X133127000Y-87315000D01*
X133127000Y-67685000D01*
X165315000Y-67685000D01*
X165315001Y-87315000D01*
G37*
X165315001Y-87315000D02*
X133127000Y-87315000D01*
X133127000Y-67685000D01*
X165315000Y-67685000D01*
X165315001Y-87315000D01*
%TO.N,GND*%
G36*
X132623000Y-87315000D02*
G01*
X100127000Y-87315000D01*
X100127000Y-67685000D01*
X132623000Y-67685000D01*
X132623000Y-87315000D01*
G37*
X132623000Y-87315000D02*
X100127000Y-87315000D01*
X100127000Y-67685000D01*
X132623000Y-67685000D01*
X132623000Y-87315000D01*
%TD*%
M02*
