M48
; DRILL file {KiCad (5.1.6)-1} date 12/11/21 15:19:39
; FORMAT={-:-/ absolute / metric / decimal}
; #@! TF.CreationDate,2021-12-11T15:19:39-08:00
; #@! TF.GenerationSoftware,Kicad,Pcbnew,(5.1.6)-1
FMAT,2
METRIC
T1C0.400
T2C1.000
T3C1.020
T4C6.500
%
G90
G05
T1
X101.0Y-75.0
X102.0Y-71.0
X103.0Y-75.0
X104.0Y-71.0
X105.0Y-75.0
X106.0Y-71.0
X107.0Y-75.0
X108.0Y-71.0
X108.0Y-81.0
X109.0Y-75.0
X109.0Y-79.0
X109.0Y-83.0
X110.0Y-71.0
X110.0Y-77.0
X110.0Y-81.0
X110.0Y-85.0
X111.0Y-75.0
X111.0Y-79.0
X111.0Y-83.0
X111.0Y-87.0
X112.0Y-71.0
X112.0Y-77.0
X112.0Y-81.0
X112.0Y-85.0
X113.0Y-75.0
X113.0Y-79.0
X113.0Y-83.0
X113.0Y-87.0
X114.0Y-71.0
X114.0Y-77.0
X114.0Y-85.0
X115.0Y-75.0
X115.0Y-87.0
X116.0Y-71.0
X116.0Y-77.0
X116.0Y-85.0
X117.0Y-75.0
X117.0Y-87.0
X118.0Y-71.0
X118.0Y-77.0
X118.0Y-85.0
X119.0Y-75.0
X119.0Y-87.0
X120.0Y-71.0
X120.0Y-77.0
X120.0Y-81.0
X120.0Y-85.0
X121.0Y-79.0
X121.0Y-83.0
X121.0Y-87.0
X122.0Y-71.0
X122.0Y-75.0
X122.0Y-77.0
X122.0Y-81.0
X122.0Y-85.0
X123.0Y-79.0
X123.0Y-83.0
X123.0Y-87.0
X124.0Y-71.0
X124.0Y-75.0
X124.0Y-77.0
X124.0Y-81.0
X124.0Y-85.0
X125.0Y-79.0
X125.0Y-83.0
X126.0Y-71.0
X126.0Y-75.0
X126.0Y-81.0
X128.0Y-71.0
X128.0Y-75.0
X130.0Y-71.0
X130.0Y-75.0
X132.0Y-71.0
X132.0Y-75.0
X134.0Y-71.0
X134.0Y-75.0
X134.0Y-75.0
X136.0Y-71.0
X136.0Y-75.0
X136.0Y-75.0
X136.0Y-75.0
X136.0Y-75.0
X138.0Y-71.0
X138.0Y-75.0
X138.0Y-75.0
X138.0Y-75.0
X140.0Y-71.0
X140.0Y-75.0
X140.0Y-81.0
X141.0Y-79.0
X141.0Y-83.0
X142.0Y-71.0
X142.0Y-75.0
X142.0Y-77.0
X142.0Y-81.0
X142.0Y-85.0
X143.0Y-79.0
X143.0Y-83.0
X143.0Y-87.0
X144.0Y-71.0
X144.0Y-75.0
X144.0Y-77.0
X144.0Y-81.0
X144.0Y-85.0
X145.0Y-79.0
X145.0Y-83.0
X145.0Y-87.0
X146.0Y-71.0
X146.0Y-77.0
X146.0Y-81.0
X146.0Y-85.0
X147.0Y-75.0
X147.0Y-87.0
X148.0Y-71.0
X148.0Y-77.0
X148.0Y-85.0
X149.0Y-75.0
X149.0Y-87.0
X150.0Y-71.0
X150.0Y-77.0
X150.0Y-85.0
X151.0Y-75.0
X151.0Y-87.0
X152.0Y-71.0
X152.0Y-77.0
X152.0Y-85.0
X153.0Y-75.0
X153.0Y-79.0
X153.0Y-83.0
X153.0Y-87.0
X154.0Y-71.0
X154.0Y-77.0
X154.0Y-81.0
X154.0Y-85.0
X155.0Y-75.0
X155.0Y-79.0
X155.0Y-83.0
X155.0Y-87.0
X156.0Y-71.0
X156.0Y-77.0
X156.0Y-81.0
X156.0Y-85.0
X157.0Y-75.0
X157.0Y-79.0
X157.0Y-83.0
X158.0Y-71.0
X158.0Y-81.0
X159.0Y-75.0
X160.0Y-71.0
X161.0Y-75.0
X162.0Y-71.0
X163.0Y-75.0
X164.0Y-71.0
X165.0Y-75.0
T2
X91.5Y-77.0
X94.04Y-77.0
T3
X85.86Y-69.155
X85.86Y-72.965
X88.4Y-69.155
X88.4Y-72.965
X90.94Y-69.155
X90.94Y-72.965
X93.48Y-69.155
X93.48Y-72.965
X96.02Y-69.155
X96.02Y-72.965
X98.56Y-69.155
X98.56Y-72.965
X101.1Y-69.155
X101.1Y-72.965
X103.64Y-69.155
X103.64Y-72.965
X106.18Y-69.155
X106.18Y-72.965
X108.72Y-69.155
X108.72Y-72.965
X111.26Y-69.155
X111.26Y-72.965
X113.8Y-69.155
X113.8Y-72.965
X116.34Y-69.155
X116.34Y-72.965
X118.88Y-69.155
X118.88Y-72.965
X121.42Y-69.155
X121.42Y-72.965
X123.96Y-69.155
X123.96Y-72.965
X126.5Y-69.155
X126.5Y-72.965
X129.04Y-69.155
X129.04Y-72.965
X131.58Y-69.155
X131.58Y-72.965
X134.12Y-69.155
X134.12Y-72.965
X136.66Y-69.155
X136.66Y-72.965
X139.2Y-69.155
X139.2Y-72.965
X141.74Y-69.155
X141.74Y-72.965
X144.28Y-69.155
X144.28Y-72.965
X146.82Y-69.155
X146.82Y-72.965
X149.36Y-69.155
X149.36Y-72.965
X151.9Y-69.155
X151.9Y-72.965
X154.44Y-69.155
X154.44Y-72.965
X156.98Y-69.155
X156.98Y-72.965
X159.52Y-69.155
X159.52Y-72.965
X162.06Y-69.155
X162.06Y-72.965
X164.6Y-69.155
X164.6Y-72.965
T4
X116.5Y-81.0
X149.5Y-81.0
T0
M30
